# xmcd
#
# Track frame offsets:
#	150
#	9790
#	19316
#	34393
#	44370
#	62685
#	75606
#	87579
#	105892
#	121836
#	136064
#	153135
#
# Disc length: 2284 seconds
#
# Revision: 1
# Processed by: cddbd v1.5.2PL0 Copyright (c) Steve Scherf et al.
# Submitted via: audiograbber 1.83.01
#
DISCID=8508ea0c
DTITLE=Sturgill Simposon - High Top Mountain
DYEAR=2013
DGENRE=Country
TTITLE0=Life Ain't Fair And The World Is Mean
TTITLE1=Railroad Of Sin
TTITLE2=Water In A Well
TTITLE3=Sitting Here Without You
TTITLE4=The Storm
TTITLE5=You Can Have The Crown
TTITLE6=Time After All
TTITLE7=Hero
TTITLE8=Some Days
TTITLE9=Old King Coal
TTITLE10=Poor Rambler
TTITLE11=I'd Have To Be Crazy
EXTD=
EXTT0=
EXTT1=
EXTT2=
EXTT3=
EXTT4=
EXTT5=
EXTT6=
EXTT7=
EXTT8=
EXTT9=
EXTT10=
EXTT11=
PLAYORDER=
